<?xml version="1.0" encoding="UTF-8"?>
<svg viewBox="0 0 198 156" xmlns="http://www.w3.org/2000/svg">
<path d="m151.95 89.948c2.88-10.324 5.184-20.809 6.912-31.39 1.76-4.0079 3.744-7.9197 5.92-11.703 2.688-4.6492 5.855-8.9457 8.799-13.434 2.624-4.0079 4.992-8.4326 5.28-13.274 0.224-3.7834-0.608-7.8555-3.136-10.805-2.784-3.2704-7.071-4.553-11.263-4.1682-4.544 0.38476-8.672 2.7895-12.192 5.579-3.808 3.046-7.36 6.5088-10.719 10.004-6.496 6.7654-12.256 14.236-17.216 22.188-3.648-1.4108-7.168-3.1102-10.687-4.7774-5.12-2.4369-10.304-4.5851-15.808-6.0279-9.8237-2.5651-20.895-3.5591-30.527 0.2244-8.7036 3.4308-16.031 11.254-16.159 21.001-0.064 3.8476 1.056 7.2142 2.9119 10.164-3.9678 2.1803-7.3277 5.2904-9.4076 9.3945-2.1119 4.1682-2.5279 9.2663-0.8 13.627 0.64 1.6031 1.536 3.046 2.6239 4.3285-3.2319 2.9498-6.1438 6.7012-7.4877 10.902-1.28 3.976-0.544 7.984 1.5679 11.543 0.608 0.994 1.312 1.924 2.08 2.821-3.5519 3.11-4.7039 8.209-3.6479 12.761 1.216 5.355 5.1198 9.523 9.3117 12.826 3.2318 2.533 6.6877 4.809 10.272 6.829 1.7919 1.122 3.6798 2.181 5.5678 3.142 2.0159 0.994 4.1278 1.924 6.2717 2.565 1.472 0.449 2.9759 0.834 4.4799 1.027 1.0239 0.128 2.0479 0.192 3.0718 0.16 0.512 0 1.024-0.032 1.504-0.096 1.4079-0.129 2.8159-0.513 4.1918-0.962 0.96-0.321 1.8879-0.738 2.7839-1.251 0.704-0.384 1.408-0.801 2.0479-1.25 4.0319 0.962 8.1277 1.507 12.288 1.443 8.864-0.161 17.183-3.752 23.903-9.491 7.392-6.284 12.608-14.653 16.576-23.438 4.447-9.747 7.775-20.104 10.687-30.46z" fill="#EF9E81"/>
<path d="m43.152 117.18c6.1256 3.949 12.476 7.578 18.986 10.821 3.2072 1.606 6.4785 3.147 9.8139 4.496 3.3034 1.349 6.703 2.505 10.231 3.211 3.2713 0.642 6.8312 0.964 10.135 0.321 2.0526-0.385 4.2655-0.899 6.0294-2.055 1.0584-0.674 1.9564-1.541 2.7904-2.472 0.738-0.835 1.507-1.735 2.052-2.698 0.866-1.573 1.347-3.339 1.54-5.106 0.545-4.463-0.898-9.087-4.49-11.913-0.5133-0.418-1.0906-0.803-1.6679-1.124-0.449-0.257-0.8338 0.417-0.4169 0.706 2.0848 1.221 3.7528 2.955 4.7788 5.17 0.866 1.863 1.187 3.982 1.09 6.037-0.096 1.767-0.449 3.533-1.186 5.138-0.321 0.707-0.738 1.349-1.219 1.959-0.866 1.124-1.8281 2.184-2.9186 3.083-1.5394 1.252-3.4316 1.798-5.3239 2.248-3.143 0.77-6.4464 0.674-9.6214 0.192-6.8633-1.059-13.31-4.014-19.5-7.032-6.3502-3.083-12.54-6.519-18.505-10.276-0.7377-0.449-1.4433-0.931-2.1809-1.381-0.449-0.289-0.8659 0.418-0.4169 0.675z" fill="#C4674E"/>
<path d="m49.117 92.064c7.152 3.3717 14.368 6.6471 21.584 9.7936 6.9274 3.051 13.919 6.102 21.231 8.125 3.5278 0.995 7.3123 1.926 11.001 1.284 2.726-0.481 5.228-1.862 7.152-3.821 1.956-1.991 3.367-4.56 3.945-7.322 0.352-1.6051 0.224-3.2749-0.064-4.8805-0.866-4.6562-3.689-8.8629-7.794-11.207-0.609-0.3532-1.251-0.6422-1.924-0.9313-0.481-0.1926-0.674 0.5781-0.225 0.7707 4.458 1.8625 7.665 5.7159 8.884 10.34 0.417 1.6056 0.642 3.3075 0.449 4.9452-0.256 2.3759-1.443 4.7849-2.918 6.6469-1.7 2.087-3.977 3.661-6.575 4.4-3.432 0.931-7.0237 0.224-10.391-0.675-7.0878-1.83-13.855-4.688-20.558-7.61-6.9916-3.0509-13.919-6.1657-20.846-9.3769-0.8659-0.4175-1.7319-0.8028-2.5978-1.2203-0.4169-0.1605-0.8018 0.5459-0.3528 0.7386z" fill="#C4674E"/>
<path d="m56.654 64.866c8.1141 3.3717 15.972 7.3215 23.958 10.886 3.9448 1.7661 7.9537 3.4359 12.027 4.9131 4.1372 1.5092 8.4351 2.9864 12.829 3.468 3.816 0.4496 7.889-0.0642 11.128-2.312 1.476-1.0276 2.726-2.3763 3.528-3.9819 0.834-1.6376 1.219-3.5001 1.187-5.3305 0-3.7892-1.7-7.2894-4.201-10.083-2.727-3.0506-6.319-5.17-10.039-6.8077-3.175-1.4129-6.446-2.5689-9.6855-3.8212-3.1751-1.2203-6.286-2.5048-9.3649-3.9177-0.9942-0.4495-1.9884-0.8991-2.9827-1.3808-0.449-0.2248-0.8659 0.4817-0.4169 0.7065 3.3355 1.5413 6.703 3.0185 10.103 4.3993 2.8543 1.1239 5.7084 2.2157 8.5634 3.3075 3.816 1.4771 7.633 3.1791 10.84 5.7801 2.822 2.312 5.228 5.3948 6.061 8.9913 0.834 3.5323 0.097 7.5141-2.501 10.147-2.598 2.6331-6.415 3.6607-10.039 3.5965-4.361-0.0642-8.6589-1.4772-12.732-2.858s-8.05-2.9863-11.963-4.6883c-7.8255-3.4038-15.458-7.2572-23.316-10.629-0.9301-0.4175-1.8923-0.8028-2.8223-1.1882-0.417-0.1926-0.6415 0.6101-0.1604 0.8028z" fill="#C4674E"/>
<path d="m89.174 150.32c1.1867-2.441 1.6678-5.234 1.347-7.932-0.1603-1.316-0.481-2.633-0.9942-3.885-0.449-1.092-1.0263-2.537-2.245-2.922-0.4811-0.161-0.7056 0.61-0.2245 0.77 0.5452 0.161 0.866 0.707 1.1225 1.188 0.2887 0.546 0.5452 1.092 0.7697 1.67 0.417 1.156 0.7056 2.344 0.8018 3.565 0.2245 2.44-0.2245 4.913-1.2828 7.128-0.2245 0.482 0.481 0.9 0.7055 0.418z" fill="#C4674E"/>
<path d="m102.26 77.967c0.161-4.9452 2.309-9.7298 5.869-13.134 0.385-0.3533-0.192-0.9313-0.577-0.5781-3.72 3.5645-5.933 8.5418-6.126 13.68 0.033 0.5459 0.834 0.5459 0.834 0.0321z" fill="#C4674E"/>
<path d="m106.88 65.925c1.796 0.5138 3.592 1.1239 5.227 2.0551 1.315 0.7386 2.534 1.8304 2.791 3.4039 0.256 1.5413-0.449 3.1148-1.572 4.1424-1.187 1.1239-2.854 1.6377-4.458 1.7661-2.213 0.1606-4.394-0.4495-6.51-1.0597-0.481-0.1284-0.706 0.6423-0.225 0.7707 3.72 1.0918 8.178 2.0231 11.482-0.6743 1.283-1.0597 2.149-2.6974 2.116-4.3993 0-1.7662-1.026-3.1791-2.405-4.1424-0.834-0.578-1.764-1.0276-2.694-1.413-1.154-0.4816-2.341-0.8991-3.56-1.2523-0.481-0.1285-0.673 0.6422-0.192 0.8028z" fill="#C4674E"/>
<path d="m92.478 103.46c0.1604-5.2985 2.4696-10.404 6.2861-14.065 0.3848-0.3532-0.1925-0.9312-0.5773-0.578-3.9769 3.7892-6.3502 9.1197-6.5426 14.643 0 0.514 0.8018 0.514 0.8338 0z" fill="#C4674E"/>
<path d="m97.449 90.555c1.8923 0.5459 3.8164 1.2202 5.5484 2.1836 1.443 0.8028 2.79 1.9909 3.047 3.7249 0.224 1.6377-0.513 3.3076-1.7 4.3996-1.315 1.22-3.111 1.766-4.8428 1.894-2.3733 0.161-4.6824-0.481-6.9274-1.124-0.4811-0.128-0.7056 0.643-0.2245 0.771 3.9127 1.156 8.6597 2.152 12.155-0.642 1.412-1.124 2.342-2.8902 2.342-4.7206 0-1.8945-1.123-3.4038-2.598-4.4635-0.898-0.6422-1.892-1.0918-2.887-1.5092-1.218-0.5138-2.4691-0.9634-3.7199-1.3166-0.4811-0.1284-0.7056 0.6422-0.1925 0.8028z" fill="#C4674E"/>
<path d="m83.818 129.31c0.1604-5.299 2.4696-10.404 6.2861-14.065 0.3848-0.353-0.1925-0.931-0.5773-0.578-3.9769 3.789-6.3502 9.12-6.5426 14.643 0 0.514 0.8018 0.514 0.8338 0z" fill="#C4674E"/>
<path d="m88.789 116.37c1.8922 0.546 3.8165 1.22 5.5484 2.183 1.4432 0.803 2.7902 1.991 3.0468 3.725 0.2245 1.638-0.5132 3.308-1.6998 4.4-1.3149 1.22-3.111 1.766-4.8428 1.894-2.3733 0.161-4.6825-0.481-6.9275-1.124-0.4811-0.128-0.7055 0.643-0.2245 0.771 3.9128 1.156 8.6593 2.152 12.155-0.642 1.4112-1.124 2.3413-2.89 2.3413-4.721 0-1.894-1.1225-3.403-2.5978-4.463-0.898-0.642-1.8923-1.092-2.8865-1.509-1.2187-0.514-2.4695-0.964-3.7203-1.317-0.481-0.128-0.7055 0.674-0.1924 0.803z" fill="#C4674E"/>
<path d="m73.523 148.81c0.1283-3.982 1.8602-7.836 4.7466-10.597 0.3849-0.353-0.1924-0.931-0.5773-0.578-3.0468 2.89-4.8428 6.968-4.9711 11.143 0 0.546 0.8018 0.546 0.8018 0.032z" fill="#C4674E"/>
<path d="m77.179 139.11c1.4112 0.417 2.8544 0.899 4.1373 1.638 1.0583 0.61 2.0846 1.477 2.2771 2.761 0.1924 1.22-0.3849 2.505-1.2829 3.308-0.9942 0.899-2.3412 1.284-3.6241 1.381-1.7639 0.096-3.4637-0.354-5.1635-0.867-0.4811-0.129-0.7056 0.642-0.2245 0.77 3.0147 0.867 6.6388 1.638 9.3007-0.514 1.0905-0.867 1.796-2.215 1.796-3.628 0-1.445-0.8338-2.633-1.9884-3.468-1.4753-1.06-3.3354-1.67-5.0673-2.152-0.449-0.16-0.6414 0.61-0.1604 0.771z" fill="#C4674E"/>
<path d="m174.77 114.51-2.662-9.152-2.469 9.152-8.852 2.922 8.852 2.987 2.469 9.922 2.79-9.858 8.531-3.051-8.659-2.922z" fill="#FFD62A"/>
<path d="m27.468 44.09-2.5978-8.9592-2.4375 8.9271-8.6593 2.89 8.6593 2.8901 2.4375 9.7298 2.7261-9.6656 8.3706-2.9543-8.4989-2.8579z" fill="#FFD62A"/>
<path d="m192.03 90.972-1.604-5.5232-1.507 5.5232-5.324 1.734 5.324 1.7983 1.507 6.0044 1.668-5.9402 5.163-1.8625-5.227-1.734z" fill="#FFD62A"/>
<path d="m8.6745 73.793-1.5715-5.3948-1.4753 5.3948-5.2277 1.734 5.2277 1.7341 1.4753 5.8764 1.6356-5.8443 5.0353-1.7662-5.0994-1.734z" fill="#FFD62A"/>
<path d="m109.96 4.4635-1.283-4.4635-1.219 4.4635-4.298 1.4129 4.298 1.445 1.219 4.8488 1.347-4.8167 4.169-1.4771-4.233-1.4129z" fill="#FFD62A"/>
<path d="m26.154 142.26-1.2829-4.464-1.2187 4.464-4.2976 1.445 4.2976 1.445 1.2187 4.817 1.347-4.785 4.1693-1.477-4.2334-1.445z" fill="#FFD62A"/>
</svg>
